<?xml version="1.0" encoding="UTF-8" standalone="no"?>
<!DOCTYPE svg PUBLIC "-//W3C//DTD SVG 1.1//EN"
 "http://www.w3.org/Graphics/SVG/1.1/DTD/svg11.dtd">
<!-- Generated by graphviz version 14.0.1 (20251006.0113)
 -->
<!-- Title: G Pages: 1 -->
<svg width="1693pt" height="1173pt"
 viewBox="0.00 0.00 1693.00 1173.00" xmlns="http://www.w3.org/2000/svg" xmlns:xlink="http://www.w3.org/1999/xlink">
<g id="graph0" class="graph" transform="scale(1 1) rotate(0) translate(21.6 1151.51)">
<title>G</title>
<polygon fill="#111111" stroke="none" points="-21.6,21.6 -21.6,-1151.51 1671.6,-1151.51 1671.6,21.6 -21.6,21.6"/>
<!-- (business)/_layout.tsx -->
<g id="node1" class="node">
<title>(business)/_layout.tsx</title>
<path fill="none" stroke="#cfffac" d="M157.33,-200.91C157.33,-200.91 26.67,-200.91 26.67,-200.91 22.71,-200.91 18.75,-196.96 18.75,-193 18.75,-193 18.75,-185.08 18.75,-185.08 18.75,-181.12 22.71,-177.16 26.67,-177.16 26.67,-177.16 157.33,-177.16 157.33,-177.16 161.29,-177.16 165.25,-181.12 165.25,-185.08 165.25,-185.08 165.25,-193 165.25,-193 165.25,-196.96 161.29,-200.91 157.33,-200.91"/>
<text xml:space="preserve" text-anchor="middle" x="92" y="-183.61" font-family="Arial" font-size="14.00" fill="#cfffac">(business)/_layout.tsx</text>
</g>
<!-- (business)/businessHomepage.tsx -->
<g id="node2" class="node">
<title>(business)/businessHomepage.tsx</title>
<path fill="none" stroke="#c6c5fe" d="M722.58,-861.91C722.58,-861.91 515.42,-861.91 515.42,-861.91 511.46,-861.91 507.5,-857.96 507.5,-854 507.5,-854 507.5,-846.08 507.5,-846.08 507.5,-842.12 511.46,-838.16 515.42,-838.16 515.42,-838.16 722.58,-838.16 722.58,-838.16 726.54,-838.16 730.5,-842.12 730.5,-846.08 730.5,-846.08 730.5,-854 730.5,-854 730.5,-857.96 726.54,-861.91 722.58,-861.91"/>
<text xml:space="preserve" text-anchor="middle" x="619" y="-844.61" font-family="Arial" font-size="14.00" fill="#c6c5fe">(business)/businessHomepage.tsx</text>
</g>
<!-- ../components/MetricsCardCampaign.tsx -->
<g id="node3" class="node">
<title>../components/MetricsCardCampaign.tsx</title>
<path fill="none" stroke="#cfffac" d="M1087.71,-861.91C1087.71,-861.91 841.54,-861.91 841.54,-861.91 837.58,-861.91 833.62,-857.96 833.62,-854 833.62,-854 833.62,-846.08 833.62,-846.08 833.62,-842.12 837.58,-838.16 841.54,-838.16 841.54,-838.16 1087.71,-838.16 1087.71,-838.16 1091.67,-838.16 1095.62,-842.12 1095.62,-846.08 1095.62,-846.08 1095.62,-854 1095.62,-854 1095.62,-857.96 1091.67,-861.91 1087.71,-861.91"/>
<text xml:space="preserve" text-anchor="middle" x="964.62" y="-844.61" font-family="Arial" font-size="14.00" fill="#cfffac">../components/MetricsCardCampaign.tsx</text>
</g>
<!-- (business)/businessHomepage.tsx&#45;&gt;../components/MetricsCardCampaign.tsx -->
<g id="edge1" class="edge">
<title>(business)/businessHomepage.tsx&#45;&gt;../components/MetricsCardCampaign.tsx</title>
<path fill="none" stroke="#757575" d="M730.62,-850.04C759.71,-850.04 791.5,-850.04 821.98,-850.04"/>
<polygon fill="#757575" stroke="#757575" points="821.63,-853.54 831.63,-850.04 821.63,-846.54 821.63,-853.54"/>
</g>
<!-- ../controllers/orchestrators/campaignOrchestrator.ts -->
<g id="node4" class="node">
<title>../controllers/orchestrators/campaignOrchestrator.ts</title>
<path fill="none" stroke="#c6c5fe" d="M1118.83,-773.91C1118.83,-773.91 810.42,-773.91 810.42,-773.91 806.46,-773.91 802.5,-769.96 802.5,-766 802.5,-766 802.5,-758.08 802.5,-758.08 802.5,-754.12 806.46,-750.16 810.42,-750.16 810.42,-750.16 1118.83,-750.16 1118.83,-750.16 1122.79,-750.16 1126.75,-754.12 1126.75,-758.08 1126.75,-758.08 1126.75,-766 1126.75,-766 1126.75,-769.96 1122.79,-773.91 1118.83,-773.91"/>
<text xml:space="preserve" text-anchor="middle" x="964.62" y="-756.61" font-family="Arial" font-size="14.00" fill="#c6c5fe">../controllers/orchestrators/campaignOrchestrator.ts</text>
</g>
<!-- (business)/businessHomepage.tsx&#45;&gt;../controllers/orchestrators/campaignOrchestrator.ts -->
<g id="edge2" class="edge">
<title>(business)/businessHomepage.tsx&#45;&gt;../controllers/orchestrators/campaignOrchestrator.ts</title>
<path fill="none" stroke="#757575" d="M700.23,-837.73C721.86,-833.88 745.17,-829.26 766.5,-824.04 819.37,-811.09 878.82,-791.71 918.47,-778.07"/>
<polygon fill="#757575" stroke="#757575" points="919.38,-781.46 927.68,-774.88 917.09,-774.85 919.38,-781.46"/>
</g>
<!-- ../store/businessAuthStore.js -->
<g id="node5" class="node">
<title>../store/businessAuthStore.js</title>
<path fill="none" stroke="#cfffac" d="M1050.58,-943.91C1050.58,-943.91 878.67,-943.91 878.67,-943.91 874.71,-943.91 870.75,-939.96 870.75,-936 870.75,-936 870.75,-928.08 870.75,-928.08 870.75,-924.12 874.71,-920.16 878.67,-920.16 878.67,-920.16 1050.58,-920.16 1050.58,-920.16 1054.54,-920.16 1058.5,-924.12 1058.5,-928.08 1058.5,-928.08 1058.5,-936 1058.5,-936 1058.5,-939.96 1054.54,-943.91 1050.58,-943.91"/>
<text xml:space="preserve" text-anchor="middle" x="964.62" y="-926.61" font-family="Arial" font-size="14.00" fill="#cfffac">../store/businessAuthStore.js</text>
</g>
<!-- (business)/businessHomepage.tsx&#45;&gt;../store/businessAuthStore.js -->
<g id="edge3" class="edge">
<title>(business)/businessHomepage.tsx&#45;&gt;../store/businessAuthStore.js</title>
<path fill="none" stroke="#757575" d="M720.86,-862.36C736.22,-864.85 751.84,-867.74 766.5,-871.04 819.58,-882.98 879.05,-902.22 918.66,-915.9"/>
<polygon fill="#757575" stroke="#757575" points="917.5,-919.2 928.1,-919.19 919.81,-912.59 917.5,-919.2"/>
</g>
<!-- ../controllers/services/campaignServices.ts -->
<g id="node12" class="node">
<title>../controllers/services/campaignServices.ts</title>
<path fill="none" stroke="#c6c5fe" d="M1426.58,-665.91C1426.58,-665.91 1170.67,-665.91 1170.67,-665.91 1166.71,-665.91 1162.75,-661.96 1162.75,-658 1162.75,-658 1162.75,-650.08 1162.75,-650.08 1162.75,-646.12 1166.71,-642.16 1170.67,-642.16 1170.67,-642.16 1426.58,-642.16 1426.58,-642.16 1430.54,-642.16 1434.5,-646.12 1434.5,-650.08 1434.5,-650.08 1434.5,-658 1434.5,-658 1434.5,-661.96 1430.54,-665.91 1426.58,-665.91"/>
<text xml:space="preserve" text-anchor="middle" x="1298.62" y="-648.61" font-family="Arial" font-size="14.00" fill="#c6c5fe">../controllers/services/campaignServices.ts</text>
</g>
<!-- ../controllers/orchestrators/campaignOrchestrator.ts&#45;&gt;../controllers/services/campaignServices.ts -->
<g id="edge45" class="edge">
<title>../controllers/orchestrators/campaignOrchestrator.ts&#45;&gt;../controllers/services/campaignServices.ts</title>
<path fill="none" stroke="#757575" d="M1022.51,-749.7C1053.62,-742.42 1092.66,-732.41 1126.75,-721.04 1143.19,-715.55 1146.66,-712.49 1162.75,-706.04 1193.25,-693.81 1227.84,-680.48 1254.36,-670.38"/>
<polygon fill="#757575" stroke="#757575" points="1255.31,-673.77 1263.41,-666.94 1252.82,-667.22 1255.31,-673.77"/>
</g>
<!-- types.ts -->
<g id="node24" class="node">
<title>types.ts</title>
<path fill="none" stroke="#cfffac" d="M1583.58,-383.91C1583.58,-383.91 1536.92,-383.91 1536.92,-383.91 1532.96,-383.91 1529,-379.96 1529,-376 1529,-376 1529,-368.08 1529,-368.08 1529,-364.12 1532.96,-360.16 1536.92,-360.16 1536.92,-360.16 1583.58,-360.16 1583.58,-360.16 1587.54,-360.16 1591.5,-364.12 1591.5,-368.08 1591.5,-368.08 1591.5,-376 1591.5,-376 1591.5,-379.96 1587.54,-383.91 1583.58,-383.91"/>
<text xml:space="preserve" text-anchor="middle" x="1560.25" y="-366.61" font-family="Arial" font-size="14.00" fill="#cfffac">types.ts</text>
</g>
<!-- ../controllers/orchestrators/campaignOrchestrator.ts&#45;&gt;types.ts -->
<g id="edge46" class="edge">
<title>../controllers/orchestrators/campaignOrchestrator.ts&#45;&gt;types.ts</title>
<path fill="none" stroke="#757575" d="M1127.13,-769.15C1225.79,-765.21 1349.01,-744.43 1434.5,-675.04 1524.62,-601.89 1550.33,-452.88 1557.06,-395.39"/>
<polygon fill="#757575" stroke="#757575" points="1560.5,-396.1 1558.09,-385.78 1553.54,-395.35 1560.5,-396.1"/>
</g>
<!-- (business)/businessProfile.tsx -->
<g id="node6" class="node">
<title>(business)/businessProfile.tsx</title>
<path fill="none" stroke="#c6c5fe" d="M708.33,-1025.91C708.33,-1025.91 529.67,-1025.91 529.67,-1025.91 525.71,-1025.91 521.75,-1021.96 521.75,-1018 521.75,-1018 521.75,-1010.08 521.75,-1010.08 521.75,-1006.12 525.71,-1002.16 529.67,-1002.16 529.67,-1002.16 708.33,-1002.16 708.33,-1002.16 712.29,-1002.16 716.25,-1006.12 716.25,-1010.08 716.25,-1010.08 716.25,-1018 716.25,-1018 716.25,-1021.96 712.29,-1025.91 708.33,-1025.91"/>
<text xml:space="preserve" text-anchor="middle" x="619" y="-1008.61" font-family="Arial" font-size="14.00" fill="#c6c5fe">(business)/businessProfile.tsx</text>
</g>
<!-- (business)/businessProfile.tsx&#45;&gt;../store/businessAuthStore.js -->
<g id="edge4" class="edge">
<title>(business)/businessProfile.tsx&#45;&gt;../store/businessAuthStore.js</title>
<path fill="none" stroke="#757575" d="M716.54,-1002.41C733.28,-999.76 750.46,-996.65 766.5,-993.04 819.58,-981.1 879.05,-961.86 918.66,-948.18"/>
<polygon fill="#757575" stroke="#757575" points="919.81,-951.49 928.1,-944.89 917.5,-944.88 919.81,-951.49"/>
</g>
<!-- (business)/campaign/[id].tsx -->
<g id="node7" class="node">
<title>(business)/campaign/[id].tsx</title>
<path fill="none" stroke="#c6c5fe" d="M176.08,-242.91C176.08,-242.91 7.92,-242.91 7.92,-242.91 3.96,-242.91 0,-238.96 0,-235 0,-235 0,-227.08 0,-227.08 0,-223.12 3.96,-219.16 7.92,-219.16 7.92,-219.16 176.08,-219.16 176.08,-219.16 180.04,-219.16 184,-223.12 184,-227.08 184,-227.08 184,-235 184,-235 184,-238.96 180.04,-242.91 176.08,-242.91"/>
<text xml:space="preserve" text-anchor="middle" x="92" y="-225.61" font-family="Arial" font-size="14.00" fill="#c6c5fe">(business)/campaign/[id].tsx</text>
</g>
<!-- ../components/CustomTabBar.tsx -->
<g id="node8" class="node">
<title>../components/CustomTabBar.tsx</title>
<path fill="none" stroke="#c6c5fe" d="M427.58,-494.91C427.58,-494.91 227.92,-494.91 227.92,-494.91 223.96,-494.91 220,-490.96 220,-487 220,-487 220,-479.08 220,-479.08 220,-475.12 223.96,-471.16 227.92,-471.16 227.92,-471.16 427.58,-471.16 427.58,-471.16 431.54,-471.16 435.5,-475.12 435.5,-479.08 435.5,-479.08 435.5,-487 435.5,-487 435.5,-490.96 431.54,-494.91 427.58,-494.91"/>
<text xml:space="preserve" text-anchor="middle" x="327.75" y="-477.61" font-family="Arial" font-size="14.00" fill="#c6c5fe">../components/CustomTabBar.tsx</text>
</g>
<!-- (business)/campaign/[id].tsx&#45;&gt;../components/CustomTabBar.tsx -->
<g id="edge5" class="edge">
<title>(business)/campaign/[id].tsx&#45;&gt;../components/CustomTabBar.tsx</title>
<path fill="none" stroke="#757575" d="M104.27,-243.19C141.53,-283.35 260.94,-412.09 307.71,-462.51"/>
<polygon fill="#757575" stroke="#757575" points="304.92,-464.65 314.29,-469.6 310.05,-459.89 304.92,-464.65"/>
</g>
<!-- ../controllers/services/bookingsServices.ts -->
<g id="node9" class="node">
<title>../controllers/services/bookingsServices.ts</title>
<path fill="none" stroke="#c6c5fe" d="M1423.96,-32.91C1423.96,-32.91 1173.29,-32.91 1173.29,-32.91 1169.33,-32.91 1165.38,-28.96 1165.38,-25 1165.38,-25 1165.38,-17.08 1165.38,-17.08 1165.38,-13.12 1169.33,-9.16 1173.29,-9.16 1173.29,-9.16 1423.96,-9.16 1423.96,-9.16 1427.92,-9.16 1431.88,-13.12 1431.88,-17.08 1431.88,-17.08 1431.88,-25 1431.88,-25 1431.88,-28.96 1427.92,-32.91 1423.96,-32.91"/>
<text xml:space="preserve" text-anchor="middle" x="1298.62" y="-15.61" font-family="Arial" font-size="14.00" fill="#c6c5fe">../controllers/services/bookingsServices.ts</text>
</g>
<!-- (business)/campaign/[id].tsx&#45;&gt;../controllers/services/bookingsServices.ts -->
<g id="edge6" class="edge">
<title>(business)/campaign/[id].tsx&#45;&gt;../controllers/services/bookingsServices.ts</title>
<path fill="none" stroke="#757575" d="M156.32,-218.76C165.72,-216.27 175.21,-213.37 184,-210.04 319.96,-158.56 331.33,-92.61 471.5,-54.04 707.24,10.83 995.01,3.99 1161.21,-7.86"/>
<polygon fill="#757575" stroke="#757575" points="1160.73,-11.33 1170.96,-8.57 1161.24,-4.35 1160.73,-11.33"/>
</g>
<!-- ../utility/layoutConstants.ts -->
<g id="node18" class="node">
<title>../utility/layoutConstants.ts</title>
<path fill="none" stroke="#cfffac" d="M697.46,-659.91C697.46,-659.91 540.54,-659.91 540.54,-659.91 536.58,-659.91 532.62,-655.96 532.62,-652 532.62,-652 532.62,-644.08 532.62,-644.08 532.62,-640.12 536.58,-636.16 540.54,-636.16 540.54,-636.16 697.46,-636.16 697.46,-636.16 701.42,-636.16 705.38,-640.12 705.38,-644.08 705.38,-644.08 705.38,-652 705.38,-652 705.38,-655.96 701.42,-659.91 697.46,-659.91"/>
<text xml:space="preserve" text-anchor="middle" x="619" y="-642.61" font-family="Arial" font-size="14.00" fill="#cfffac">../utility/layoutConstants.ts</text>
</g>
<!-- ../components/CustomTabBar.tsx&#45;&gt;../utility/layoutConstants.ts -->
<g id="edge40" class="edge">
<title>../components/CustomTabBar.tsx&#45;&gt;../utility/layoutConstants.ts</title>
<path fill="none" stroke="#757575" d="M340.82,-495.27C375.07,-529.95 470.47,-626.52 471.5,-627.04 486.75,-634.71 503.96,-639.81 521.07,-643.17"/>
<polygon fill="#757575" stroke="#757575" points="520.34,-646.59 530.79,-644.87 521.54,-639.7 520.34,-646.59"/>
</g>
<!-- ../controllers/services/bookingsServices.ts&#45;&gt;types.ts -->
<g id="edge51" class="edge">
<title>../controllers/services/bookingsServices.ts&#45;&gt;types.ts</title>
<path fill="none" stroke="#757575" d="M1412.34,-33.28C1420.32,-36.92 1427.83,-41.45 1434.5,-47.04 1529.87,-126.94 1552.53,-288.49 1557.74,-348.71"/>
<polygon fill="#757575" stroke="#757575" points="1554.24,-348.75 1558.5,-358.45 1561.21,-348.21 1554.24,-348.75"/>
</g>
<!-- (business)/campaign/[id]/edit.tsx -->
<g id="node10" class="node">
<title>(business)/campaign/[id]/edit.tsx</title>
<path fill="none" stroke="#c6c5fe" d="M715.83,-617.91C715.83,-617.91 522.17,-617.91 522.17,-617.91 518.21,-617.91 514.25,-613.96 514.25,-610 514.25,-610 514.25,-602.08 514.25,-602.08 514.25,-598.12 518.21,-594.16 522.17,-594.16 522.17,-594.16 715.83,-594.16 715.83,-594.16 719.79,-594.16 723.75,-598.12 723.75,-602.08 723.75,-602.08 723.75,-610 723.75,-610 723.75,-613.96 719.79,-617.91 715.83,-617.91"/>
<text xml:space="preserve" text-anchor="middle" x="619" y="-600.61" font-family="Arial" font-size="14.00" fill="#c6c5fe">(business)/campaign/[id]/edit.tsx</text>
</g>
<!-- ../controllers/orchestrators/genreOrchestrator.ts -->
<g id="node11" class="node">
<title>../controllers/orchestrators/genreOrchestrator.ts</title>
<path fill="none" stroke="#c6c5fe" d="M1106.46,-435.91C1106.46,-435.91 822.79,-435.91 822.79,-435.91 818.83,-435.91 814.88,-431.96 814.88,-428 814.88,-428 814.88,-420.08 814.88,-420.08 814.88,-416.12 818.83,-412.16 822.79,-412.16 822.79,-412.16 1106.46,-412.16 1106.46,-412.16 1110.42,-412.16 1114.38,-416.12 1114.38,-420.08 1114.38,-420.08 1114.38,-428 1114.38,-428 1114.38,-431.96 1110.42,-435.91 1106.46,-435.91"/>
<text xml:space="preserve" text-anchor="middle" x="964.62" y="-418.61" font-family="Arial" font-size="14.00" fill="#c6c5fe">../controllers/orchestrators/genreOrchestrator.ts</text>
</g>
<!-- (business)/campaign/[id]/edit.tsx&#45;&gt;../controllers/orchestrators/genreOrchestrator.ts -->
<g id="edge7" class="edge">
<title>(business)/campaign/[id]/edit.tsx&#45;&gt;../controllers/orchestrators/genreOrchestrator.ts</title>
<path fill="none" stroke="#757575" d="M724.07,-606.55C739.69,-602.49 754.54,-595.76 766.5,-585.04 814.34,-542.16 754.38,-487.61 802.5,-445.04 803.45,-444.2 804.42,-443.38 805.4,-442.58"/>
<polygon fill="#757575" stroke="#757575" points="807.28,-445.54 813.4,-436.89 803.23,-439.84 807.28,-445.54"/>
</g>
<!-- (business)/campaign/[id]/edit.tsx&#45;&gt;../controllers/services/campaignServices.ts -->
<g id="edge8" class="edge">
<title>(business)/campaign/[id]/edit.tsx&#45;&gt;../controllers/services/campaignServices.ts</title>
<path fill="none" stroke="#757575" d="M724.02,-613.41C838.21,-621.5 1022.39,-634.54 1151.15,-643.66"/>
<polygon fill="#757575" stroke="#757575" points="1150.53,-647.13 1160.76,-644.34 1151.03,-640.15 1150.53,-647.13"/>
</g>
<!-- ../controllers/services/mediaServices.ts -->
<g id="node13" class="node">
<title>../controllers/services/mediaServices.ts</title>
<path fill="none" stroke="#cfffac" d="M1081.71,-711.91C1081.71,-711.91 847.54,-711.91 847.54,-711.91 843.58,-711.91 839.62,-707.96 839.62,-704 839.62,-704 839.62,-696.08 839.62,-696.08 839.62,-692.12 843.58,-688.16 847.54,-688.16 847.54,-688.16 1081.71,-688.16 1081.71,-688.16 1085.67,-688.16 1089.62,-692.12 1089.62,-696.08 1089.62,-696.08 1089.62,-704 1089.62,-704 1089.62,-707.96 1085.67,-711.91 1081.71,-711.91"/>
<text xml:space="preserve" text-anchor="middle" x="964.62" y="-694.61" font-family="Arial" font-size="14.00" fill="#cfffac">../controllers/services/mediaServices.ts</text>
</g>
<!-- (business)/campaign/[id]/edit.tsx&#45;&gt;../controllers/services/mediaServices.ts -->
<g id="edge9" class="edge">
<title>(business)/campaign/[id]/edit.tsx&#45;&gt;../controllers/services/mediaServices.ts</title>
<path fill="none" stroke="#757575" d="M724.09,-617.03C738.48,-619.69 752.97,-622.97 766.5,-627.04 783.45,-632.13 786.12,-637.35 802.5,-644.04 839.16,-659.02 881.49,-673.63 913.56,-684.17"/>
<polygon fill="#757575" stroke="#757575" points="912.42,-687.48 923.01,-687.25 914.59,-680.82 912.42,-687.48"/>
</g>
<!-- ../controllers/orchestrators/genreOrchestrator.ts&#45;&gt;types.ts -->
<g id="edge48" class="edge">
<title>../controllers/orchestrators/genreOrchestrator.ts&#45;&gt;types.ts</title>
<path fill="none" stroke="#757575" d="M1114.85,-418.01C1207.15,-413.34 1327.95,-405.5 1434.5,-393.04 1462.24,-389.79 1493.21,-384.59 1517.35,-380.17"/>
<polygon fill="#757575" stroke="#757575" points="1517.93,-383.63 1527.13,-378.36 1516.65,-376.74 1517.93,-383.63"/>
</g>
<!-- ../controllers/services/genreServices.ts -->
<g id="node34" class="node">
<title>../controllers/services/genreServices.ts</title>
<path fill="none" stroke="#cfffac" d="M1414.21,-383.91C1414.21,-383.91 1183.04,-383.91 1183.04,-383.91 1179.08,-383.91 1175.12,-379.96 1175.12,-376 1175.12,-376 1175.12,-368.08 1175.12,-368.08 1175.12,-364.12 1179.08,-360.16 1183.04,-360.16 1183.04,-360.16 1414.21,-360.16 1414.21,-360.16 1418.17,-360.16 1422.12,-364.12 1422.12,-368.08 1422.12,-368.08 1422.12,-376 1422.12,-376 1422.12,-379.96 1418.17,-383.91 1414.21,-383.91"/>
<text xml:space="preserve" text-anchor="middle" x="1298.62" y="-366.61" font-family="Arial" font-size="14.00" fill="#cfffac">../controllers/services/genreServices.ts</text>
</g>
<!-- ../controllers/orchestrators/genreOrchestrator.ts&#45;&gt;../controllers/services/genreServices.ts -->
<g id="edge47" class="edge">
<title>../controllers/orchestrators/genreOrchestrator.ts&#45;&gt;../controllers/services/genreServices.ts</title>
<path fill="none" stroke="#757575" d="M1066.3,-411.7C1086.35,-409.03 1107.24,-406.08 1126.75,-403.04 1158.32,-398.12 1193.03,-391.96 1222.87,-386.43"/>
<polygon fill="#757575" stroke="#757575" points="1223.38,-389.9 1232.57,-384.63 1222.09,-383.02 1223.38,-389.9"/>
</g>
<!-- ../controllers/services/campaignServices.ts&#45;&gt;types.ts -->
<g id="edge52" class="edge">
<title>../controllers/services/campaignServices.ts&#45;&gt;types.ts</title>
<path fill="none" stroke="#757575" d="M1420.24,-641.76C1425.25,-639.25 1430.03,-636.36 1434.5,-633.04 1515.09,-573.08 1545.9,-447.49 1555.52,-395.43"/>
<polygon fill="#757575" stroke="#757575" points="1558.96,-396.07 1557.23,-385.62 1552.07,-394.87 1558.96,-396.07"/>
</g>
<!-- (business)/createCampaign.tsx -->
<g id="node14" class="node">
<title>(business)/createCampaign.tsx</title>
<path fill="none" stroke="#c6c5fe" d="M421.21,-821.91C421.21,-821.91 234.29,-821.91 234.29,-821.91 230.33,-821.91 226.38,-817.96 226.38,-814 226.38,-814 226.38,-806.08 226.38,-806.08 226.38,-802.12 230.33,-798.16 234.29,-798.16 234.29,-798.16 421.21,-798.16 421.21,-798.16 425.17,-798.16 429.12,-802.12 429.12,-806.08 429.12,-806.08 429.12,-814 429.12,-814 429.12,-817.96 425.17,-821.91 421.21,-821.91"/>
<text xml:space="preserve" text-anchor="middle" x="327.75" y="-804.61" font-family="Arial" font-size="14.00" fill="#c6c5fe">(business)/createCampaign.tsx</text>
</g>
<!-- (business)/createCampaign.tsx&#45;&gt;../store/businessAuthStore.js -->
<g id="edge11" class="edge">
<title>(business)/createCampaign.tsx&#45;&gt;../store/businessAuthStore.js</title>
<path fill="none" stroke="#757575" d="M340.3,-822.19C362.92,-845.04 415.74,-893.82 471.5,-913.04 599.48,-957.13 757.38,-953.96 859.25,-945.11"/>
<polygon fill="#757575" stroke="#757575" points="859.31,-948.62 868.95,-944.23 858.68,-941.65 859.31,-948.62"/>
</g>
<!-- (business)/createCampaign.tsx&#45;&gt;../controllers/services/mediaServices.ts -->
<g id="edge10" class="edge">
<title>(business)/createCampaign.tsx&#45;&gt;../controllers/services/mediaServices.ts</title>
<path fill="none" stroke="#757575" d="M429.25,-802.48C518.61,-794.46 652.4,-779.23 766.5,-753.04 782.94,-749.27 786.32,-745.79 802.5,-741.04 834.43,-731.67 870.27,-722.42 900.03,-715.09"/>
<polygon fill="#757575" stroke="#757575" points="900.77,-718.52 909.65,-712.74 899.1,-711.72 900.77,-718.52"/>
</g>
<!-- ../store/campaignStore.js -->
<g id="node15" class="node">
<title>../store/campaignStore.js</title>
<path fill="none" stroke="#c6c5fe" d="M694.08,-743.91C694.08,-743.91 543.92,-743.91 543.92,-743.91 539.96,-743.91 536,-739.96 536,-736 536,-736 536,-728.08 536,-728.08 536,-724.12 539.96,-720.16 543.92,-720.16 543.92,-720.16 694.08,-720.16 694.08,-720.16 698.04,-720.16 702,-724.12 702,-728.08 702,-728.08 702,-736 702,-736 702,-739.96 698.04,-743.91 694.08,-743.91"/>
<text xml:space="preserve" text-anchor="middle" x="619" y="-726.61" font-family="Arial" font-size="14.00" fill="#c6c5fe">../store/campaignStore.js</text>
</g>
<!-- (business)/createCampaign.tsx&#45;&gt;../store/campaignStore.js -->
<g id="edge12" class="edge">
<title>(business)/createCampaign.tsx&#45;&gt;../store/campaignStore.js</title>
<path fill="none" stroke="#757575" d="M374.58,-797.68C425.25,-784.02 506.92,-761.99 561.5,-747.27"/>
<polygon fill="#757575" stroke="#757575" points="562.18,-750.72 570.92,-744.73 560.35,-743.96 562.18,-750.72"/>
</g>
<!-- ../store/campaignStore.js&#45;&gt;../controllers/services/mediaServices.ts -->
<g id="edge58" class="edge">
<title>../store/campaignStore.js&#45;&gt;../controllers/services/mediaServices.ts</title>
<path fill="none" stroke="#757575" d="M702.31,-724.37C739.94,-720.87 785.53,-716.62 828.02,-712.67"/>
<polygon fill="#757575" stroke="#757575" points="828.19,-716.17 837.83,-711.75 827.55,-709.2 828.19,-716.17"/>
</g>
<!-- (fan)/_layout.tsx -->
<g id="node16" class="node">
<title>(fan)/_layout.tsx</title>
<path fill="none" stroke="#c6c5fe" d="M140.08,-535.91C140.08,-535.91 43.92,-535.91 43.92,-535.91 39.96,-535.91 36,-531.96 36,-528 36,-528 36,-520.08 36,-520.08 36,-516.12 39.96,-512.16 43.92,-512.16 43.92,-512.16 140.08,-512.16 140.08,-512.16 144.04,-512.16 148,-516.12 148,-520.08 148,-520.08 148,-528 148,-528 148,-531.96 144.04,-535.91 140.08,-535.91"/>
<text xml:space="preserve" text-anchor="middle" x="92" y="-518.61" font-family="Arial" font-size="14.00" fill="#c6c5fe">(fan)/_layout.tsx</text>
</g>
<!-- (fan)/_layout.tsx&#45;&gt;../components/CustomTabBar.tsx -->
<g id="edge13" class="edge">
<title>(fan)/_layout.tsx&#45;&gt;../components/CustomTabBar.tsx</title>
<path fill="none" stroke="#757575" d="M148.4,-514.32C177.26,-509.26 213.12,-502.97 245.09,-497.36"/>
<polygon fill="#757575" stroke="#757575" points="245.49,-500.85 254.73,-495.67 244.28,-493.95 245.49,-500.85"/>
</g>
<!-- ../store/authStore.ts -->
<g id="node17" class="node">
<title>../store/authStore.ts</title>
<path fill="none" stroke="#c6c5fe" d="M1023.58,-535.91C1023.58,-535.91 905.67,-535.91 905.67,-535.91 901.71,-535.91 897.75,-531.96 897.75,-528 897.75,-528 897.75,-520.08 897.75,-520.08 897.75,-516.12 901.71,-512.16 905.67,-512.16 905.67,-512.16 1023.58,-512.16 1023.58,-512.16 1027.54,-512.16 1031.5,-516.12 1031.5,-520.08 1031.5,-520.08 1031.5,-528 1031.5,-528 1031.5,-531.96 1027.54,-535.91 1023.58,-535.91"/>
<text xml:space="preserve" text-anchor="middle" x="964.62" y="-518.61" font-family="Arial" font-size="14.00" fill="#c6c5fe">../store/authStore.ts</text>
</g>
<!-- (fan)/_layout.tsx&#45;&gt;../store/authStore.ts -->
<g id="edge14" class="edge">
<title>(fan)/_layout.tsx&#45;&gt;../store/authStore.ts</title>
<path fill="none" stroke="#757575" d="M148.45,-524.04C298.55,-524.04 713.08,-524.04 886.15,-524.04"/>
<polygon fill="#757575" stroke="#757575" points="885.93,-527.54 895.93,-524.04 885.93,-520.54 885.93,-527.54"/>
</g>
<!-- (fan)/_layout.tsx&#45;&gt;../utility/layoutConstants.ts -->
<g id="edge15" class="edge">
<title>(fan)/_layout.tsx&#45;&gt;../utility/layoutConstants.ts</title>
<path fill="none" stroke="#757575" d="M148.45,-536.36C160.21,-539.11 172.54,-542.08 184,-545.04 312.67,-578.21 341.55,-599.33 471.5,-627.04 487.58,-630.47 504.77,-633.49 521.52,-636.11"/>
<polygon fill="#757575" stroke="#757575" points="520.53,-639.5 530.94,-637.53 521.58,-632.58 520.53,-639.5"/>
</g>
<!-- ../store/authStore.ts&#45;&gt;types.ts -->
<g id="edge57" class="edge">
<title>../store/authStore.ts&#45;&gt;types.ts</title>
<path fill="none" stroke="#757575" d="M1031.64,-526.88C1143.41,-530.72 1364.57,-533.81 1434.5,-502.04 1485.67,-478.79 1526.47,-424.13 1546.24,-393.61"/>
<polygon fill="#757575" stroke="#757575" points="1548.96,-395.87 1551.32,-385.55 1543.03,-392.14 1548.96,-395.87"/>
</g>
<!-- ../controllers/services/loginServices.ts -->
<g id="node37" class="node">
<title>../controllers/services/loginServices.ts</title>
<path fill="none" stroke="#c6c5fe" d="M1411.21,-623.91C1411.21,-623.91 1186.04,-623.91 1186.04,-623.91 1182.08,-623.91 1178.12,-619.96 1178.12,-616 1178.12,-616 1178.12,-608.08 1178.12,-608.08 1178.12,-604.12 1182.08,-600.16 1186.04,-600.16 1186.04,-600.16 1411.21,-600.16 1411.21,-600.16 1415.17,-600.16 1419.12,-604.12 1419.12,-608.08 1419.12,-608.08 1419.12,-616 1419.12,-616 1419.12,-619.96 1415.17,-623.91 1411.21,-623.91"/>
<text xml:space="preserve" text-anchor="middle" x="1298.62" y="-606.61" font-family="Arial" font-size="14.00" fill="#c6c5fe">../controllers/services/loginServices.ts</text>
</g>
<!-- ../store/authStore.ts&#45;&gt;../controllers/services/loginServices.ts -->
<g id="edge55" class="edge">
<title>../store/authStore.ts&#45;&gt;../controllers/services/loginServices.ts</title>
<path fill="none" stroke="#757575" d="M1031.98,-521.47C1062.57,-523 1098.32,-528.83 1126.75,-545.04 1149.3,-557.9 1140.36,-577.9 1162.75,-591.04 1165.25,-592.51 1167.83,-593.88 1170.46,-595.17"/>
<polygon fill="#757575" stroke="#757575" points="1168.91,-598.32 1179.47,-599.12 1171.71,-591.9 1168.91,-598.32"/>
</g>
<!-- ../utility/crypto.ts -->
<g id="node38" class="node">
<title>../utility/crypto.ts</title>
<path fill="none" stroke="#cfffac" d="M1347.08,-581.91C1347.08,-581.91 1250.17,-581.91 1250.17,-581.91 1246.21,-581.91 1242.25,-577.96 1242.25,-574 1242.25,-574 1242.25,-566.08 1242.25,-566.08 1242.25,-562.12 1246.21,-558.16 1250.17,-558.16 1250.17,-558.16 1347.08,-558.16 1347.08,-558.16 1351.04,-558.16 1355,-562.12 1355,-566.08 1355,-566.08 1355,-574 1355,-574 1355,-577.96 1351.04,-581.91 1347.08,-581.91"/>
<text xml:space="preserve" text-anchor="middle" x="1298.62" y="-564.61" font-family="Arial" font-size="14.00" fill="#cfffac">../utility/crypto.ts</text>
</g>
<!-- ../store/authStore.ts&#45;&gt;../utility/crypto.ts -->
<g id="edge56" class="edge">
<title>../store/authStore.ts&#45;&gt;../utility/crypto.ts</title>
<path fill="none" stroke="#757575" d="M1031.9,-532.44C1061.01,-536.19 1095.59,-540.73 1126.75,-545.04 1161,-549.78 1199.08,-555.32 1230.57,-559.98"/>
<polygon fill="#757575" stroke="#757575" points="1229.96,-563.43 1240.37,-561.43 1230.99,-556.5 1229.96,-563.43"/>
</g>
<!-- (fan)/bookings.tsx -->
<g id="node19" class="node">
<title>(fan)/bookings.tsx</title>
<path fill="none" stroke="#c6c5fe" d="M381.08,-233.91C381.08,-233.91 274.42,-233.91 274.42,-233.91 270.46,-233.91 266.5,-229.96 266.5,-226 266.5,-226 266.5,-218.08 266.5,-218.08 266.5,-214.12 270.46,-210.16 274.42,-210.16 274.42,-210.16 381.08,-210.16 381.08,-210.16 385.04,-210.16 389,-214.12 389,-218.08 389,-218.08 389,-226 389,-226 389,-229.96 385.04,-233.91 381.08,-233.91"/>
<text xml:space="preserve" text-anchor="middle" x="327.75" y="-216.61" font-family="Arial" font-size="14.00" fill="#c6c5fe">(fan)/bookings.tsx</text>
</g>
<!-- (fan)/bookings.tsx&#45;&gt;../store/authStore.ts -->
<g id="edge19" class="edge">
<title>(fan)/bookings.tsx&#45;&gt;../store/authStore.ts</title>
<path fill="none" stroke="#757575" d="M352.27,-234.41C376.61,-248.38 414.01,-273.38 435.5,-305.04 467.72,-352.52 427.6,-392.08 471.5,-429.04 521.96,-471.53 704.75,-438.85 766.5,-462.04 784.74,-468.89 784.68,-479.16 802.5,-487.04 828.8,-498.67 859.2,-506.86 886.45,-512.53"/>
<polygon fill="#757575" stroke="#757575" points="885.54,-515.92 896.03,-514.43 886.91,-509.05 885.54,-515.92"/>
</g>
<!-- (fan)/bookings.tsx&#45;&gt;../utility/layoutConstants.ts -->
<g id="edge21" class="edge">
<title>(fan)/bookings.tsx&#45;&gt;../utility/layoutConstants.ts</title>
<path fill="none" stroke="#757575" d="M354.31,-234.22C379.57,-247.74 417.03,-272.06 435.5,-305.04 470.69,-367.86 421.38,-575.34 471.5,-627.04 484.67,-640.62 502.38,-648.13 520.94,-651.93"/>
<polygon fill="#757575" stroke="#757575" points="520.32,-655.38 530.75,-653.55 521.46,-648.47 520.32,-655.38"/>
</g>
<!-- ../components/BottomModalCardsExplore.tsx -->
<g id="node20" class="node">
<title>../components/BottomModalCardsExplore.tsx</title>
<path fill="none" stroke="#c6c5fe" d="M755.58,-233.91C755.58,-233.91 482.42,-233.91 482.42,-233.91 478.46,-233.91 474.5,-229.96 474.5,-226 474.5,-226 474.5,-218.08 474.5,-218.08 474.5,-214.12 478.46,-210.16 482.42,-210.16 482.42,-210.16 755.58,-210.16 755.58,-210.16 759.54,-210.16 763.5,-214.12 763.5,-218.08 763.5,-218.08 763.5,-226 763.5,-226 763.5,-229.96 759.54,-233.91 755.58,-233.91"/>
<text xml:space="preserve" text-anchor="middle" x="619" y="-216.61" font-family="Arial" font-size="14.00" fill="#c6c5fe">../components/BottomModalCardsExplore.tsx</text>
</g>
<!-- (fan)/bookings.tsx&#45;&gt;../components/BottomModalCardsExplore.tsx -->
<g id="edge16" class="edge">
<title>(fan)/bookings.tsx&#45;&gt;../components/BottomModalCardsExplore.tsx</title>
<path fill="none" stroke="#757575" d="M389.39,-222.04C411.13,-222.04 436.75,-222.04 462.83,-222.04"/>
<polygon fill="#757575" stroke="#757575" points="462.51,-225.54 472.51,-222.04 462.51,-218.54 462.51,-225.54"/>
</g>
<!-- ../components/EventCard.tsx -->
<g id="node21" class="node">
<title>../components/EventCard.tsx</title>
<path fill="none" stroke="#c6c5fe" d="M706.08,-294.91C706.08,-294.91 531.92,-294.91 531.92,-294.91 527.96,-294.91 524,-290.96 524,-287 524,-287 524,-279.08 524,-279.08 524,-275.12 527.96,-271.16 531.92,-271.16 531.92,-271.16 706.08,-271.16 706.08,-271.16 710.04,-271.16 714,-275.12 714,-279.08 714,-279.08 714,-287 714,-287 714,-290.96 710.04,-294.91 706.08,-294.91"/>
<text xml:space="preserve" text-anchor="middle" x="619" y="-277.61" font-family="Arial" font-size="14.00" fill="#c6c5fe">../components/EventCard.tsx</text>
</g>
<!-- (fan)/bookings.tsx&#45;&gt;../components/EventCard.tsx -->
<g id="edge17" class="edge">
<title>(fan)/bookings.tsx&#45;&gt;../components/EventCard.tsx</title>
<path fill="none" stroke="#757575" d="M387.28,-234.38C433.84,-244.2 499.11,-257.97 548.35,-268.35"/>
<polygon fill="#757575" stroke="#757575" points="547.56,-271.76 558.07,-270.4 549.01,-264.91 547.56,-271.76"/>
</g>
<!-- ../controllers/orchestrators/bookingOrchestrator.ts -->
<g id="node22" class="node">
<title>../controllers/orchestrators/bookingOrchestrator.ts</title>
<path fill="none" stroke="#c6c5fe" d="M1112.83,-153.91C1112.83,-153.91 816.42,-153.91 816.42,-153.91 812.46,-153.91 808.5,-149.96 808.5,-146 808.5,-146 808.5,-138.08 808.5,-138.08 808.5,-134.12 812.46,-130.16 816.42,-130.16 816.42,-130.16 1112.83,-130.16 1112.83,-130.16 1116.79,-130.16 1120.75,-134.12 1120.75,-138.08 1120.75,-138.08 1120.75,-146 1120.75,-146 1120.75,-149.96 1116.79,-153.91 1112.83,-153.91"/>
<text xml:space="preserve" text-anchor="middle" x="964.62" y="-136.61" font-family="Arial" font-size="14.00" fill="#c6c5fe">../controllers/orchestrators/bookingOrchestrator.ts</text>
</g>
<!-- (fan)/bookings.tsx&#45;&gt;../controllers/orchestrators/bookingOrchestrator.ts -->
<g id="edge18" class="edge">
<title>(fan)/bookings.tsx&#45;&gt;../controllers/orchestrators/bookingOrchestrator.ts</title>
<path fill="none" stroke="#757575" d="M354.08,-209.71C382.07,-196.75 428.84,-177.01 471.5,-168.04 578.31,-145.58 700.88,-139.05 796.98,-138.15"/>
<polygon fill="#757575" stroke="#757575" points="796.78,-141.65 806.75,-138.08 796.73,-134.65 796.78,-141.65"/>
</g>
<!-- ../store/bookingsStore.ts -->
<g id="node23" class="node">
<title>../store/bookingsStore.ts</title>
<path fill="none" stroke="#cfffac" d="M1037.46,-111.91C1037.46,-111.91 891.79,-111.91 891.79,-111.91 887.83,-111.91 883.88,-107.96 883.88,-104 883.88,-104 883.88,-96.08 883.88,-96.08 883.88,-92.12 887.83,-88.16 891.79,-88.16 891.79,-88.16 1037.46,-88.16 1037.46,-88.16 1041.42,-88.16 1045.38,-92.12 1045.38,-96.08 1045.38,-96.08 1045.38,-104 1045.38,-104 1045.38,-107.96 1041.42,-111.91 1037.46,-111.91"/>
<text xml:space="preserve" text-anchor="middle" x="964.62" y="-94.61" font-family="Arial" font-size="14.00" fill="#cfffac">../store/bookingsStore.ts</text>
</g>
<!-- (fan)/bookings.tsx&#45;&gt;../store/bookingsStore.ts -->
<g id="edge20" class="edge">
<title>(fan)/bookings.tsx&#45;&gt;../store/bookingsStore.ts</title>
<path fill="none" stroke="#757575" d="M343.4,-209.77C368.02,-189.95 420.08,-151.46 471.5,-135.04 606.04,-92.06 771.44,-89.93 872.12,-93.85"/>
<polygon fill="#757575" stroke="#757575" points="871.82,-97.34 881.96,-94.27 872.12,-90.35 871.82,-97.34"/>
</g>
<!-- (fan)/bookings.tsx&#45;&gt;types.ts -->
<g id="edge22" class="edge">
<title>(fan)/bookings.tsx&#45;&gt;types.ts</title>
<path fill="none" stroke="#757575" d="M336.97,-209.84C356.44,-182.16 408.53,-114.93 471.5,-89.04 606.19,-33.66 981.63,-66.86 1126.75,-79.04 1264.98,-90.63 1322.43,-49.28 1434.5,-131.04 1509.76,-185.95 1543.19,-299.82 1554.5,-348.81"/>
<polygon fill="#757575" stroke="#757575" points="1551.03,-349.29 1556.59,-358.31 1557.86,-347.79 1551.03,-349.29"/>
</g>
<!-- ../components/BottomModalCardsExplore.tsx&#45;&gt;../store/authStore.ts -->
<g id="edge32" class="edge">
<title>../components/BottomModalCardsExplore.tsx&#45;&gt;../store/authStore.ts</title>
<path fill="none" stroke="#757575" d="M723.85,-234.31C739.97,-240.43 755.05,-249.29 766.5,-262.04 834.14,-337.41 733.33,-413.07 802.5,-487.04 823.79,-509.81 856.03,-519.92 886.08,-524.01"/>
<polygon fill="#757575" stroke="#757575" points="885.63,-527.48 895.96,-525.13 886.42,-520.53 885.63,-527.48"/>
</g>
<!-- ../components/BottomModalCardsExplore.tsx&#45;&gt;../controllers/orchestrators/bookingOrchestrator.ts -->
<g id="edge31" class="edge">
<title>../components/BottomModalCardsExplore.tsx&#45;&gt;../controllers/orchestrators/bookingOrchestrator.ts</title>
<path fill="none" stroke="#757575" d="M725.5,-209.7C739.61,-206.22 753.64,-201.76 766.5,-196.04 785.02,-187.8 783.91,-176.13 802.5,-168.04 812.24,-163.8 822.58,-160.25 833.14,-157.27"/>
<polygon fill="#757575" stroke="#757575" points="833.95,-160.67 842.74,-154.75 832.17,-153.9 833.95,-160.67"/>
</g>
<!-- ../components/BottomModalCardsExplore.tsx&#45;&gt;../store/bookingsStore.ts -->
<g id="edge33" class="edge">
<title>../components/BottomModalCardsExplore.tsx&#45;&gt;../store/bookingsStore.ts</title>
<path fill="none" stroke="#757575" d="M636.61,-209.99C667.54,-188.23 736.79,-142.63 802.5,-121.04 824.61,-113.77 849.2,-109.01 872.38,-105.89"/>
<polygon fill="#757575" stroke="#757575" points="872.64,-109.38 882.13,-104.67 871.77,-102.44 872.64,-109.38"/>
</g>
<!-- ../components/BottomModalCardsExplore.tsx&#45;&gt;types.ts -->
<g id="edge35" class="edge">
<title>../components/BottomModalCardsExplore.tsx&#45;&gt;types.ts</title>
<path fill="none" stroke="#757575" d="M709.4,-209.68C738.97,-206.15 772.09,-202.78 802.5,-201.04 1084.5,-184.87 1180.73,-144 1434.5,-268.04 1477.4,-289.01 1518.14,-327.75 1540.8,-351.57"/>
<polygon fill="#757575" stroke="#757575" points="1538.15,-353.87 1547.53,-358.8 1543.27,-349.1 1538.15,-353.87"/>
</g>
<!-- ../components/CustomToast.tsx -->
<g id="node27" class="node">
<title>../components/CustomToast.tsx</title>
<path fill="none" stroke="#cfffac" d="M1059.58,-393.91C1059.58,-393.91 869.67,-393.91 869.67,-393.91 865.71,-393.91 861.75,-389.96 861.75,-386 861.75,-386 861.75,-378.08 861.75,-378.08 861.75,-374.12 865.71,-370.16 869.67,-370.16 869.67,-370.16 1059.58,-370.16 1059.58,-370.16 1063.54,-370.16 1067.5,-374.12 1067.5,-378.08 1067.5,-378.08 1067.5,-386 1067.5,-386 1067.5,-389.96 1063.54,-393.91 1059.58,-393.91"/>
<text xml:space="preserve" text-anchor="middle" x="964.62" y="-376.61" font-family="Arial" font-size="14.00" fill="#cfffac">../components/CustomToast.tsx</text>
</g>
<!-- ../components/BottomModalCardsExplore.tsx&#45;&gt;../components/CustomToast.tsx -->
<g id="edge30" class="edge">
<title>../components/BottomModalCardsExplore.tsx&#45;&gt;../components/CustomToast.tsx</title>
<path fill="none" stroke="#757575" d="M707.99,-234.39C728.63,-240.32 749.53,-249.08 766.5,-262.04 791.52,-281.14 778.31,-302.9 802.5,-323.04 827.48,-343.83 860.43,-357.62 890.02,-366.6"/>
<polygon fill="#757575" stroke="#757575" points="888.72,-369.86 899.3,-369.27 890.66,-363.14 888.72,-369.86"/>
</g>
<!-- ../utility/gesture.ts -->
<g id="node28" class="node">
<title>../utility/gesture.ts</title>
<path fill="none" stroke="#cfffac" d="M1017.21,-233.91C1017.21,-233.91 912.04,-233.91 912.04,-233.91 908.08,-233.91 904.12,-229.96 904.12,-226 904.12,-226 904.12,-218.08 904.12,-218.08 904.12,-214.12 908.08,-210.16 912.04,-210.16 912.04,-210.16 1017.21,-210.16 1017.21,-210.16 1021.17,-210.16 1025.12,-214.12 1025.12,-218.08 1025.12,-218.08 1025.12,-226 1025.12,-226 1025.12,-229.96 1021.17,-233.91 1017.21,-233.91"/>
<text xml:space="preserve" text-anchor="middle" x="964.62" y="-216.61" font-family="Arial" font-size="14.00" fill="#cfffac">../utility/gesture.ts</text>
</g>
<!-- ../components/BottomModalCardsExplore.tsx&#45;&gt;../utility/gesture.ts -->
<g id="edge34" class="edge">
<title>../components/BottomModalCardsExplore.tsx&#45;&gt;../utility/gesture.ts</title>
<path fill="none" stroke="#757575" d="M763.74,-222.04C808.24,-222.04 855.32,-222.04 892.61,-222.04"/>
<polygon fill="#757575" stroke="#757575" points="892.34,-225.54 902.34,-222.04 892.34,-218.54 892.34,-225.54"/>
</g>
<!-- ../components/EventCard.tsx&#45;&gt;types.ts -->
<g id="edge42" class="edge">
<title>../components/EventCard.tsx&#45;&gt;types.ts</title>
<path fill="none" stroke="#757575" d="M714.25,-281.81C742.62,-281.49 773.82,-281.2 802.5,-281.04 1083.87,-279.5 1162.88,-244.59 1434.5,-318.04 1466.85,-326.79 1501.69,-342.44 1526.31,-354.65"/>
<polygon fill="#757575" stroke="#757575" points="1524.67,-357.74 1535.17,-359.13 1527.82,-351.5 1524.67,-357.74"/>
</g>
<!-- ../utility/genreUtils.ts -->
<g id="node33" class="node">
<title>../utility/genreUtils.ts</title>
<path fill="none" stroke="#cfffac" d="M1025.08,-313.91C1025.08,-313.91 904.17,-313.91 904.17,-313.91 900.21,-313.91 896.25,-309.96 896.25,-306 896.25,-306 896.25,-298.08 896.25,-298.08 896.25,-294.12 900.21,-290.16 904.17,-290.16 904.17,-290.16 1025.08,-290.16 1025.08,-290.16 1029.04,-290.16 1033,-294.12 1033,-298.08 1033,-298.08 1033,-306 1033,-306 1033,-309.96 1029.04,-313.91 1025.08,-313.91"/>
<text xml:space="preserve" text-anchor="middle" x="964.62" y="-296.61" font-family="Arial" font-size="14.00" fill="#cfffac">../utility/genreUtils.ts</text>
</g>
<!-- ../components/EventCard.tsx&#45;&gt;../utility/genreUtils.ts -->
<g id="edge41" class="edge">
<title>../components/EventCard.tsx&#45;&gt;../utility/genreUtils.ts</title>
<path fill="none" stroke="#757575" d="M714.35,-288.26C767.83,-291.21 833.96,-294.87 884.67,-297.67"/>
<polygon fill="#757575" stroke="#757575" points="884.21,-301.15 894.39,-298.21 884.6,-294.16 884.21,-301.15"/>
</g>
<!-- ../controllers/orchestrators/bookingOrchestrator.ts&#45;&gt;../controllers/services/bookingsServices.ts -->
<g id="edge43" class="edge">
<title>../controllers/orchestrators/bookingOrchestrator.ts&#45;&gt;../controllers/services/bookingsServices.ts</title>
<path fill="none" stroke="#757575" d="M1095.52,-129.74C1106.21,-127.33 1116.74,-124.46 1126.75,-121.04 1182.75,-101.89 1240.72,-63.26 1272.68,-40.02"/>
<polygon fill="#757575" stroke="#757575" points="1274.54,-42.99 1280.51,-34.24 1270.39,-37.36 1274.54,-42.99"/>
</g>
<!-- ../controllers/orchestrators/bookingOrchestrator.ts&#45;&gt;types.ts -->
<g id="edge44" class="edge">
<title>../controllers/orchestrators/bookingOrchestrator.ts&#45;&gt;types.ts</title>
<path fill="none" stroke="#757575" d="M1121.16,-135.43C1236.85,-133.31 1383.19,-137.38 1434.5,-168.04 1503.39,-209.21 1539.38,-304.54 1552.87,-348.75"/>
<polygon fill="#757575" stroke="#757575" points="1549.5,-349.7 1555.66,-358.32 1556.22,-347.74 1549.5,-349.7"/>
</g>
<!-- (fan)/explore.tsx -->
<g id="node25" class="node">
<title>(fan)/explore.tsx</title>
<path fill="none" stroke="#c6c5fe" d="M376.21,-337.91C376.21,-337.91 279.29,-337.91 279.29,-337.91 275.33,-337.91 271.38,-333.96 271.38,-330 271.38,-330 271.38,-322.08 271.38,-322.08 271.38,-318.12 275.33,-314.16 279.29,-314.16 279.29,-314.16 376.21,-314.16 376.21,-314.16 380.17,-314.16 384.12,-318.12 384.12,-322.08 384.12,-322.08 384.12,-330 384.12,-330 384.12,-333.96 380.17,-337.91 376.21,-337.91"/>
<text xml:space="preserve" text-anchor="middle" x="327.75" y="-320.61" font-family="Arial" font-size="14.00" fill="#c6c5fe">(fan)/explore.tsx</text>
</g>
<!-- (fan)/explore.tsx&#45;&gt;../controllers/orchestrators/campaignOrchestrator.ts -->
<g id="edge26" class="edge">
<title>(fan)/explore.tsx&#45;&gt;../controllers/orchestrators/campaignOrchestrator.ts</title>
<path fill="none" stroke="#757575" d="M342.38,-338.35C365.91,-360.49 413.71,-409.66 435.5,-462.04 460.53,-522.2 423.08,-709.44 471.5,-753.04 597.65,-866.61 824.32,-809.36 919.57,-777.99"/>
<polygon fill="#757575" stroke="#757575" points="920.45,-781.39 928.82,-774.88 918.22,-774.75 920.45,-781.39"/>
</g>
<!-- (fan)/explore.tsx&#45;&gt;../store/authStore.ts -->
<g id="edge27" class="edge">
<title>(fan)/explore.tsx&#45;&gt;../store/authStore.ts</title>
<path fill="none" stroke="#757575" d="M337.08,-338.09C356.79,-365.52 409.35,-432.53 471.5,-462.04 508.12,-479.43 757.17,-504.78 886.29,-516.97"/>
<polygon fill="#757575" stroke="#757575" points="885.86,-520.45 896.14,-517.9 886.51,-513.48 885.86,-520.45"/>
</g>
<!-- (fan)/explore.tsx&#45;&gt;../utility/layoutConstants.ts -->
<g id="edge28" class="edge">
<title>(fan)/explore.tsx&#45;&gt;../utility/layoutConstants.ts</title>
<path fill="none" stroke="#757575" d="M341.53,-338.21C364.17,-360.52 411.2,-410.44 435.5,-462.04 467.48,-529.94 416.54,-575.92 471.5,-627.04 485.12,-639.71 502.75,-646.89 521.03,-650.67"/>
<polygon fill="#757575" stroke="#757575" points="520.22,-654.09 530.67,-652.32 521.4,-647.19 520.22,-654.09"/>
</g>
<!-- (fan)/explore.tsx&#45;&gt;../components/BottomModalCardsExplore.tsx -->
<g id="edge23" class="edge">
<title>(fan)/explore.tsx&#45;&gt;../components/BottomModalCardsExplore.tsx</title>
<path fill="none" stroke="#757575" d="M353.03,-313.76C381.06,-299.91 428.8,-277.34 471.5,-262.04 498.21,-252.47 528.36,-243.88 554.33,-237.13"/>
<polygon fill="#757575" stroke="#757575" points="554.89,-240.6 563.71,-234.73 553.16,-233.82 554.89,-240.6"/>
</g>
<!-- (fan)/explore.tsx&#45;&gt;../components/EventCard.tsx -->
<g id="edge24" class="edge">
<title>(fan)/explore.tsx&#45;&gt;../components/EventCard.tsx</title>
<path fill="none" stroke="#757575" d="M384.52,-317.75C423.95,-311.89 477.77,-303.89 523.8,-297.04"/>
<polygon fill="#757575" stroke="#757575" points="524.14,-300.53 533.52,-295.6 523.11,-293.61 524.14,-300.53"/>
</g>
<!-- (fan)/explore.tsx&#45;&gt;../controllers/orchestrators/bookingOrchestrator.ts -->
<g id="edge25" class="edge">
<title>(fan)/explore.tsx&#45;&gt;../controllers/orchestrators/bookingOrchestrator.ts</title>
<path fill="none" stroke="#757575" d="M346.63,-313.83C368.58,-298.47 406.44,-270.74 435.5,-243.04 453.29,-226.07 449.79,-212.58 471.5,-201.04 529.77,-170.07 700.99,-174.97 766.5,-167.04 795.8,-163.49 827.54,-159.52 856.81,-155.81"/>
<polygon fill="#757575" stroke="#757575" points="856.92,-159.33 866.4,-154.59 856.04,-152.38 856.92,-159.33"/>
</g>
<!-- (fan)/explore.tsx&#45;&gt;types.ts -->
<g id="edge29" class="edge">
<title>(fan)/explore.tsx&#45;&gt;types.ts</title>
<path fill="none" stroke="#757575" d="M384.48,-326.24C579.05,-327.09 1227.45,-331.37 1434.5,-351.04 1462.31,-353.68 1493.28,-358.88 1517.4,-363.44"/>
<polygon fill="#757575" stroke="#757575" points="1516.68,-366.87 1527.17,-365.33 1518.01,-360 1516.68,-366.87"/>
</g>
<!-- +not&#45;found.tsx -->
<g id="node26" class="node">
<title>+not&#45;found.tsx</title>
<path fill="none" stroke="#cfffac" d="M135.21,-577.91C135.21,-577.91 48.79,-577.91 48.79,-577.91 44.83,-577.91 40.88,-573.96 40.88,-570 40.88,-570 40.88,-562.08 40.88,-562.08 40.88,-558.12 44.83,-554.16 48.79,-554.16 48.79,-554.16 135.21,-554.16 135.21,-554.16 139.17,-554.16 143.12,-558.12 143.12,-562.08 143.12,-562.08 143.12,-570 143.12,-570 143.12,-573.96 139.17,-577.91 135.21,-577.91"/>
<text xml:space="preserve" text-anchor="middle" x="92" y="-560.61" font-family="Arial" font-size="14.00" fill="#cfffac">+not&#45;found.tsx</text>
</g>
<!-- ../components/BottomModalLoginBusiness.tsx -->
<g id="node29" class="node">
<title>../components/BottomModalLoginBusiness.tsx</title>
<path fill="none" stroke="#c6c5fe" d="M758.58,-983.91C758.58,-983.91 479.42,-983.91 479.42,-983.91 475.46,-983.91 471.5,-979.96 471.5,-976 471.5,-976 471.5,-968.08 471.5,-968.08 471.5,-964.12 475.46,-960.16 479.42,-960.16 479.42,-960.16 758.58,-960.16 758.58,-960.16 762.54,-960.16 766.5,-964.12 766.5,-968.08 766.5,-968.08 766.5,-976 766.5,-976 766.5,-979.96 762.54,-983.91 758.58,-983.91"/>
<text xml:space="preserve" text-anchor="middle" x="619" y="-966.61" font-family="Arial" font-size="14.00" fill="#c6c5fe">../components/BottomModalLoginBusiness.tsx</text>
</g>
<!-- ../components/BottomModalLoginBusiness.tsx&#45;&gt;../store/businessAuthStore.js -->
<g id="edge36" class="edge">
<title>../components/BottomModalLoginBusiness.tsx&#45;&gt;../store/businessAuthStore.js</title>
<path fill="none" stroke="#757575" d="M725.9,-959.71C768.17,-954.79 816.71,-949.14 858.87,-944.23"/>
<polygon fill="#757575" stroke="#757575" points="859.26,-947.71 868.79,-943.08 858.45,-940.76 859.26,-947.71"/>
</g>
<!-- ../components/BottomModalLoginFan.tsx -->
<g id="node30" class="node">
<title>../components/BottomModalLoginFan.tsx</title>
<path fill="none" stroke="#c6c5fe" d="M742.83,-1109.91C742.83,-1109.91 495.17,-1109.91 495.17,-1109.91 491.21,-1109.91 487.25,-1105.96 487.25,-1102 487.25,-1102 487.25,-1094.08 487.25,-1094.08 487.25,-1090.12 491.21,-1086.16 495.17,-1086.16 495.17,-1086.16 742.83,-1086.16 742.83,-1086.16 746.79,-1086.16 750.75,-1090.12 750.75,-1094.08 750.75,-1094.08 750.75,-1102 750.75,-1102 750.75,-1105.96 746.79,-1109.91 742.83,-1109.91"/>
<text xml:space="preserve" text-anchor="middle" x="619" y="-1092.61" font-family="Arial" font-size="14.00" fill="#c6c5fe">../components/BottomModalLoginFan.tsx</text>
</g>
<!-- ../components/BottomModalLoginFan.tsx&#45;&gt;../store/authStore.ts -->
<g id="edge39" class="edge">
<title>../components/BottomModalLoginFan.tsx&#45;&gt;../store/authStore.ts</title>
<path fill="none" stroke="#757575" d="M750.95,-1089.7C756.63,-1086.21 761.87,-1082.03 766.5,-1077.04 847.1,-990.18 721.35,-631.38 802.5,-545.04 823.57,-522.62 855.93,-515.49 886.14,-514.69"/>
<polygon fill="#757575" stroke="#757575" points="886.08,-518.19 896.07,-514.68 886.07,-511.19 886.08,-518.19"/>
</g>
<!-- ../controllers/api/loginAPI.ts -->
<g id="node31" class="node">
<title>../controllers/api/loginAPI.ts</title>
<path fill="none" stroke="#cfffac" d="M1642.08,-827.91C1642.08,-827.91 1478.42,-827.91 1478.42,-827.91 1474.46,-827.91 1470.5,-823.96 1470.5,-820 1470.5,-820 1470.5,-812.08 1470.5,-812.08 1470.5,-808.12 1474.46,-804.16 1478.42,-804.16 1478.42,-804.16 1642.08,-804.16 1642.08,-804.16 1646.04,-804.16 1650,-808.12 1650,-812.08 1650,-812.08 1650,-820 1650,-820 1650,-823.96 1646.04,-827.91 1642.08,-827.91"/>
<text xml:space="preserve" text-anchor="middle" x="1560.25" y="-810.61" font-family="Arial" font-size="14.00" fill="#cfffac">../controllers/api/loginAPI.ts</text>
</g>
<!-- ../components/BottomModalLoginFan.tsx&#45;&gt;../controllers/api/loginAPI.ts -->
<g id="edge37" class="edge">
<title>../components/BottomModalLoginFan.tsx&#45;&gt;../controllers/api/loginAPI.ts</title>
<path fill="none" stroke="#757575" d="M722.49,-1085.69C737.33,-1083.22 752.37,-1080.35 766.5,-1077.04 1060.67,-1008.09 1401.59,-878.3 1517.92,-832.53"/>
<polygon fill="#757575" stroke="#757575" points="1519.04,-835.85 1527.06,-828.92 1516.47,-829.33 1519.04,-835.85"/>
</g>
<!-- ../controllers/orchestrators/loginOrchestrator.ts -->
<g id="node32" class="node">
<title>../controllers/orchestrators/loginOrchestrator.ts</title>
<path fill="none" stroke="#cfffac" d="M1103.46,-1129.91C1103.46,-1129.91 825.79,-1129.91 825.79,-1129.91 821.83,-1129.91 817.88,-1125.96 817.88,-1122 817.88,-1122 817.88,-1114.08 817.88,-1114.08 817.88,-1110.12 821.83,-1106.16 825.79,-1106.16 825.79,-1106.16 1103.46,-1106.16 1103.46,-1106.16 1107.42,-1106.16 1111.38,-1110.12 1111.38,-1114.08 1111.38,-1114.08 1111.38,-1122 1111.38,-1122 1111.38,-1125.96 1107.42,-1129.91 1103.46,-1129.91"/>
<text xml:space="preserve" text-anchor="middle" x="964.62" y="-1112.61" font-family="Arial" font-size="14.00" fill="#cfffac">../controllers/orchestrators/loginOrchestrator.ts</text>
</g>
<!-- ../components/BottomModalLoginFan.tsx&#45;&gt;../controllers/orchestrators/loginOrchestrator.ts -->
<g id="edge38" class="edge">
<title>../components/BottomModalLoginFan.tsx&#45;&gt;../controllers/orchestrators/loginOrchestrator.ts</title>
<path fill="none" stroke="#757575" d="M750.89,-1105.66C768.95,-1106.71 787.66,-1107.8 806.14,-1108.87"/>
<polygon fill="#757575" stroke="#757575" points="805.91,-1112.36 816.1,-1109.45 806.32,-1105.38 805.91,-1112.36"/>
</g>
<!-- ../controllers/orchestrators/profileOrchestrator.ts -->
<g id="node35" class="node">
<title>../controllers/orchestrators/profileOrchestrator.ts</title>
<path fill="none" stroke="#c6c5fe" d="M1107.58,-477.91C1107.58,-477.91 821.67,-477.91 821.67,-477.91 817.71,-477.91 813.75,-473.96 813.75,-470 813.75,-470 813.75,-462.08 813.75,-462.08 813.75,-458.12 817.71,-454.16 821.67,-454.16 821.67,-454.16 1107.58,-454.16 1107.58,-454.16 1111.54,-454.16 1115.5,-458.12 1115.5,-462.08 1115.5,-462.08 1115.5,-470 1115.5,-470 1115.5,-473.96 1111.54,-477.91 1107.58,-477.91"/>
<text xml:space="preserve" text-anchor="middle" x="964.62" y="-460.61" font-family="Arial" font-size="14.00" fill="#c6c5fe">../controllers/orchestrators/profileOrchestrator.ts</text>
</g>
<!-- ../controllers/orchestrators/profileOrchestrator.ts&#45;&gt;types.ts -->
<g id="edge50" class="edge">
<title>../controllers/orchestrators/profileOrchestrator.ts&#45;&gt;types.ts</title>
<path fill="none" stroke="#757575" d="M1018.17,-478.36C1106.96,-496.69 1290.99,-523.85 1434.5,-473.04 1479.45,-457.12 1520.06,-417.35 1542.03,-392.73"/>
<polygon fill="#757575" stroke="#757575" points="1544.61,-395.1 1548.52,-385.26 1539.32,-390.51 1544.61,-395.1"/>
</g>
<!-- ../controllers/services/profileServices.ts -->
<g id="node36" class="node">
<title>../controllers/services/profileServices.ts</title>
<path fill="none" stroke="#c6c5fe" d="M1415.33,-463.91C1415.33,-463.91 1181.92,-463.91 1181.92,-463.91 1177.96,-463.91 1174,-459.96 1174,-456 1174,-456 1174,-448.08 1174,-448.08 1174,-444.12 1177.96,-440.16 1181.92,-440.16 1181.92,-440.16 1415.33,-440.16 1415.33,-440.16 1419.29,-440.16 1423.25,-444.12 1423.25,-448.08 1423.25,-448.08 1423.25,-456 1423.25,-456 1423.25,-459.96 1419.29,-463.91 1415.33,-463.91"/>
<text xml:space="preserve" text-anchor="middle" x="1298.62" y="-446.61" font-family="Arial" font-size="14.00" fill="#c6c5fe">../controllers/services/profileServices.ts</text>
</g>
<!-- ../controllers/orchestrators/profileOrchestrator.ts&#45;&gt;../controllers/services/profileServices.ts -->
<g id="edge49" class="edge">
<title>../controllers/orchestrators/profileOrchestrator.ts&#45;&gt;../controllers/services/profileServices.ts</title>
<path fill="none" stroke="#757575" d="M1115.6,-459.71C1131.22,-459.06 1147.04,-458.39 1162.49,-457.74"/>
<polygon fill="#757575" stroke="#757575" points="1162.31,-461.25 1172.15,-457.33 1162.01,-454.25 1162.31,-461.25"/>
</g>
<!-- ../controllers/services/profileServices.ts&#45;&gt;types.ts -->
<g id="edge54" class="edge">
<title>../controllers/services/profileServices.ts&#45;&gt;types.ts</title>
<path fill="none" stroke="#757575" d="M1379.15,-439.7C1397.51,-436.02 1416.84,-431.49 1434.5,-426.04 1466.12,-416.27 1500.54,-401 1525.2,-389.19"/>
<polygon fill="#757575" stroke="#757575" points="1526.64,-392.38 1534.1,-384.86 1523.58,-386.08 1526.64,-392.38"/>
</g>
<!-- ../controllers/services/loginServices.ts&#45;&gt;../controllers/api/loginAPI.ts -->
<g id="edge53" class="edge">
<title>../controllers/services/loginServices.ts&#45;&gt;../controllers/api/loginAPI.ts</title>
<path fill="none" stroke="#757575" d="M1417.66,-624.32C1423.54,-626.8 1429.19,-629.68 1434.5,-633.04 1496.2,-672.02 1534.99,-753.8 1550.92,-793.48"/>
<polygon fill="#757575" stroke="#757575" points="1547.62,-794.67 1554.5,-802.73 1554.15,-792.14 1547.62,-794.67"/>
</g>
<!-- ErrorBoundary.tsx -->
<g id="node39" class="node">
<title>ErrorBoundary.tsx</title>
<path fill="none" stroke="#cfffac" d="M1018.71,-577.91C1018.71,-577.91 910.54,-577.91 910.54,-577.91 906.58,-577.91 902.62,-573.96 902.62,-570 902.62,-570 902.62,-562.08 902.62,-562.08 902.62,-558.12 906.58,-554.16 910.54,-554.16 910.54,-554.16 1018.71,-554.16 1018.71,-554.16 1022.67,-554.16 1026.62,-558.12 1026.62,-562.08 1026.62,-562.08 1026.62,-570 1026.62,-570 1026.62,-573.96 1022.67,-577.91 1018.71,-577.91"/>
<text xml:space="preserve" text-anchor="middle" x="964.62" y="-560.61" font-family="Arial" font-size="14.00" fill="#cfffac">ErrorBoundary.tsx</text>
</g>
<!-- _layout.tsx -->
<g id="node40" class="node">
<title>_layout.tsx</title>
<path fill="none" stroke="#c6c5fe" d="M651.33,-575.91C651.33,-575.91 586.67,-575.91 586.67,-575.91 582.71,-575.91 578.75,-571.96 578.75,-568 578.75,-568 578.75,-560.08 578.75,-560.08 578.75,-556.12 582.71,-552.16 586.67,-552.16 586.67,-552.16 651.33,-552.16 651.33,-552.16 655.29,-552.16 659.25,-556.12 659.25,-560.08 659.25,-560.08 659.25,-568 659.25,-568 659.25,-571.96 655.29,-575.91 651.33,-575.91"/>
<text xml:space="preserve" text-anchor="middle" x="619" y="-558.61" font-family="Arial" font-size="14.00" fill="#c6c5fe">_layout.tsx</text>
</g>
<!-- _layout.tsx&#45;&gt;../store/businessAuthStore.js -->
<g id="edge61" class="edge">
<title>_layout.tsx&#45;&gt;../store/businessAuthStore.js</title>
<path fill="none" stroke="#757575" d="M659.66,-557.8C692.91,-555.02 739.21,-557.28 766.5,-585.04 856.31,-676.4 723.24,-770.39 802.5,-871.04 819.98,-893.24 846.51,-907.36 873.02,-916.35"/>
<polygon fill="#757575" stroke="#757575" points="871.92,-919.67 882.51,-919.32 874.02,-912.99 871.92,-919.67"/>
</g>
<!-- _layout.tsx&#45;&gt;../store/authStore.ts -->
<g id="edge60" class="edge">
<title>_layout.tsx&#45;&gt;../store/authStore.ts</title>
<path fill="none" stroke="#757575" d="M659.42,-559.45C714.56,-553.03 815.85,-541.24 886.33,-533.04"/>
<polygon fill="#757575" stroke="#757575" points="886.34,-536.56 895.86,-531.93 885.53,-529.61 886.34,-536.56"/>
</g>
<!-- _layout.tsx&#45;&gt;../components/CustomToast.tsx -->
<g id="edge59" class="edge">
<title>_layout.tsx&#45;&gt;../components/CustomToast.tsx</title>
<path fill="none" stroke="#757575" d="M633.05,-551.72C671.39,-515.65 782.21,-412.25 802.5,-403.04 817.46,-396.25 833.95,-391.46 850.51,-388.11"/>
<polygon fill="#757575" stroke="#757575" points="850.69,-391.64 859.89,-386.39 849.42,-384.75 850.69,-391.64"/>
</g>
<!-- _layout.tsx&#45;&gt;ErrorBoundary.tsx -->
<g id="edge62" class="edge">
<title>_layout.tsx&#45;&gt;ErrorBoundary.tsx</title>
<path fill="none" stroke="#757575" d="M659.42,-564.27C715.78,-564.6 820.36,-565.2 890.97,-565.62"/>
<polygon fill="#757575" stroke="#757575" points="890.9,-569.12 900.92,-565.67 890.94,-562.12 890.9,-569.12"/>
</g>
<!-- api/auth/oauth/callback.tsx -->
<g id="node41" class="node">
<title>api/auth/oauth/callback.tsx</title>
<path fill="none" stroke="#cfffac" d="M171.58,-619.91C171.58,-619.91 12.42,-619.91 12.42,-619.91 8.46,-619.91 4.5,-615.96 4.5,-612 4.5,-612 4.5,-604.08 4.5,-604.08 4.5,-600.12 8.46,-596.16 12.42,-596.16 12.42,-596.16 171.58,-596.16 171.58,-596.16 175.54,-596.16 179.5,-600.12 179.5,-604.08 179.5,-604.08 179.5,-612 179.5,-612 179.5,-615.96 175.54,-619.91 171.58,-619.91"/>
<text xml:space="preserve" text-anchor="middle" x="92" y="-602.61" font-family="Arial" font-size="14.00" fill="#cfffac">api/auth/oauth/callback.tsx</text>
</g>
<!-- businessSignUp.tsx -->
<g id="node42" class="node">
<title>businessSignUp.tsx</title>
<path fill="none" stroke="#c6c5fe" d="M678.33,-903.91C678.33,-903.91 559.67,-903.91 559.67,-903.91 555.71,-903.91 551.75,-899.96 551.75,-896 551.75,-896 551.75,-888.08 551.75,-888.08 551.75,-884.12 555.71,-880.16 559.67,-880.16 559.67,-880.16 678.33,-880.16 678.33,-880.16 682.29,-880.16 686.25,-884.12 686.25,-888.08 686.25,-888.08 686.25,-896 686.25,-896 686.25,-899.96 682.29,-903.91 678.33,-903.91"/>
<text xml:space="preserve" text-anchor="middle" x="619" y="-886.61" font-family="Arial" font-size="14.00" fill="#c6c5fe">businessSignUp.tsx</text>
</g>
<!-- businessSignUp.tsx&#45;&gt;../store/businessAuthStore.js -->
<g id="edge63" class="edge">
<title>businessSignUp.tsx&#45;&gt;../store/businessAuthStore.js</title>
<path fill="none" stroke="#757575" d="M686.66,-899.8C735.6,-905.49 803.02,-913.34 859.09,-919.87"/>
<polygon fill="#757575" stroke="#757575" points="858.67,-923.34 869.01,-921.02 859.48,-916.39 858.67,-923.34"/>
</g>
<!-- dev&#45;test.tsx -->
<g id="node43" class="node">
<title>dev&#45;test.tsx</title>
<path fill="none" stroke="#c6c5fe" d="M126.58,-493.91C126.58,-493.91 57.42,-493.91 57.42,-493.91 53.46,-493.91 49.5,-489.96 49.5,-486 49.5,-486 49.5,-478.08 49.5,-478.08 49.5,-474.12 53.46,-470.16 57.42,-470.16 57.42,-470.16 126.58,-470.16 126.58,-470.16 130.54,-470.16 134.5,-474.12 134.5,-478.08 134.5,-478.08 134.5,-486 134.5,-486 134.5,-489.96 130.54,-493.91 126.58,-493.91"/>
<text xml:space="preserve" text-anchor="middle" x="92" y="-476.61" font-family="Arial" font-size="14.00" fill="#c6c5fe">dev&#45;test.tsx</text>
</g>
<!-- dev&#45;test.tsx&#45;&gt;../components/CustomTabBar.tsx -->
<g id="edge64" class="edge">
<title>dev&#45;test.tsx&#45;&gt;../components/CustomTabBar.tsx</title>
<path fill="none" stroke="#757575" d="M134.79,-482.22C155.59,-482.31 181.89,-482.42 208.29,-482.53"/>
<polygon fill="#757575" stroke="#757575" points="208.07,-486.03 218.09,-482.57 208.1,-479.03 208.07,-486.03"/>
</g>
<!-- index.tsx -->
<g id="node44" class="node">
<title>index.tsx</title>
<path fill="none" stroke="#c6c5fe" d="M354.46,-1109.91C354.46,-1109.91 301.04,-1109.91 301.04,-1109.91 297.08,-1109.91 293.12,-1105.96 293.12,-1102 293.12,-1102 293.12,-1094.08 293.12,-1094.08 293.12,-1090.12 297.08,-1086.16 301.04,-1086.16 301.04,-1086.16 354.46,-1086.16 354.46,-1086.16 358.42,-1086.16 362.38,-1090.12 362.38,-1094.08 362.38,-1094.08 362.38,-1102 362.38,-1102 362.38,-1105.96 358.42,-1109.91 354.46,-1109.91"/>
<text xml:space="preserve" text-anchor="middle" x="327.75" y="-1092.61" font-family="Arial" font-size="14.00" fill="#c6c5fe">index.tsx</text>
</g>
<!-- index.tsx&#45;&gt;../components/BottomModalLoginBusiness.tsx -->
<g id="edge65" class="edge">
<title>index.tsx&#45;&gt;../components/BottomModalLoginBusiness.tsx</title>
<path fill="none" stroke="#757575" d="M340.8,-1085.83C363.87,-1063.28 416.83,-1015.4 471.5,-993.04 476.44,-991.02 481.55,-989.19 486.76,-987.53"/>
<polygon fill="#757575" stroke="#757575" points="487.51,-990.95 496.12,-984.78 485.54,-984.23 487.51,-990.95"/>
</g>
<!-- index.tsx&#45;&gt;../components/BottomModalLoginFan.tsx -->
<g id="edge66" class="edge">
<title>index.tsx&#45;&gt;../components/BottomModalLoginFan.tsx</title>
<path fill="none" stroke="#757575" d="M362.78,-1098.04C391.09,-1098.04 433.42,-1098.04 475.51,-1098.04"/>
<polygon fill="#757575" stroke="#757575" points="475.26,-1101.54 485.26,-1098.04 475.26,-1094.54 475.26,-1101.54"/>
</g>
<!-- index.tsx&#45;&gt;../controllers/orchestrators/loginOrchestrator.ts -->
<g id="edge67" class="edge">
<title>index.tsx&#45;&gt;../controllers/orchestrators/loginOrchestrator.ts</title>
<path fill="none" stroke="#757575" d="M362.63,-1104.45C391.46,-1109.56 434.03,-1116.3 471.5,-1119.04 583.18,-1127.21 709.49,-1126.75 806.19,-1124.36"/>
<polygon fill="#757575" stroke="#757575" points="806.11,-1127.86 816.02,-1124.11 805.93,-1120.86 806.11,-1127.86"/>
</g>
<!-- loading.tsx -->
<g id="node45" class="node">
<title>loading.tsx</title>
<path fill="none" stroke="#cfffac" d="M124.33,-661.91C124.33,-661.91 59.67,-661.91 59.67,-661.91 55.71,-661.91 51.75,-657.96 51.75,-654 51.75,-654 51.75,-646.08 51.75,-646.08 51.75,-642.12 55.71,-638.16 59.67,-638.16 59.67,-638.16 124.33,-638.16 124.33,-638.16 128.29,-638.16 132.25,-642.12 132.25,-646.08 132.25,-646.08 132.25,-654 132.25,-654 132.25,-657.96 128.29,-661.91 124.33,-661.91"/>
<text xml:space="preserve" text-anchor="middle" x="92" y="-644.61" font-family="Arial" font-size="14.00" fill="#cfffac">loading.tsx</text>
</g>
<!-- myEvents.tsx -->
<g id="node46" class="node">
<title>myEvents.tsx</title>
<path fill="none" stroke="#cfffac" d="M132.58,-703.91C132.58,-703.91 51.42,-703.91 51.42,-703.91 47.46,-703.91 43.5,-699.96 43.5,-696 43.5,-696 43.5,-688.08 43.5,-688.08 43.5,-684.12 47.46,-680.16 51.42,-680.16 51.42,-680.16 132.58,-680.16 132.58,-680.16 136.54,-680.16 140.5,-684.12 140.5,-688.08 140.5,-688.08 140.5,-696 140.5,-696 140.5,-699.96 136.54,-703.91 132.58,-703.91"/>
<text xml:space="preserve" text-anchor="middle" x="92" y="-686.61" font-family="Arial" font-size="14.00" fill="#cfffac">myEvents.tsx</text>
</g>
<!-- policy.tsx -->
<g id="node47" class="node">
<title>policy.tsx</title>
<path fill="none" stroke="#cfffac" d="M119.46,-745.91C119.46,-745.91 64.54,-745.91 64.54,-745.91 60.58,-745.91 56.62,-741.96 56.62,-738 56.62,-738 56.62,-730.08 56.62,-730.08 56.62,-726.12 60.58,-722.16 64.54,-722.16 64.54,-722.16 119.46,-722.16 119.46,-722.16 123.42,-722.16 127.38,-726.12 127.38,-730.08 127.38,-730.08 127.38,-738 127.38,-738 127.38,-741.96 123.42,-745.91 119.46,-745.91"/>
<text xml:space="preserve" text-anchor="middle" x="92" y="-728.61" font-family="Arial" font-size="14.00" fill="#cfffac">policy.tsx</text>
</g>
<!-- profile.tsx -->
<g id="node48" class="node">
<title>profile.tsx</title>
<path fill="none" stroke="#c6c5fe" d="M647.96,-377.91C647.96,-377.91 590.04,-377.91 590.04,-377.91 586.08,-377.91 582.12,-373.96 582.12,-370 582.12,-370 582.12,-362.08 582.12,-362.08 582.12,-358.12 586.08,-354.16 590.04,-354.16 590.04,-354.16 647.96,-354.16 647.96,-354.16 651.92,-354.16 655.88,-358.12 655.88,-362.08 655.88,-362.08 655.88,-370 655.88,-370 655.88,-373.96 651.92,-377.91 647.96,-377.91"/>
<text xml:space="preserve" text-anchor="middle" x="619" y="-360.61" font-family="Arial" font-size="14.00" fill="#c6c5fe">profile.tsx</text>
</g>
<!-- profile.tsx&#45;&gt;../controllers/orchestrators/genreOrchestrator.ts -->
<g id="edge69" class="edge">
<title>profile.tsx&#45;&gt;../controllers/orchestrators/genreOrchestrator.ts</title>
<path fill="none" stroke="#757575" d="M656.1,-368.43C686.12,-371.07 729.71,-376.45 766.5,-387.04 783.33,-391.88 785.64,-398.3 802.5,-403.04 811.09,-405.45 820.02,-407.59 829.07,-409.48"/>
<polygon fill="#757575" stroke="#757575" points="828.19,-412.88 838.68,-411.38 829.54,-406.01 828.19,-412.88"/>
</g>
<!-- profile.tsx&#45;&gt;../store/authStore.ts -->
<g id="edge71" class="edge">
<title>profile.tsx&#45;&gt;../store/authStore.ts</title>
<path fill="none" stroke="#757575" d="M656.32,-361.5C688.74,-359.5 735.73,-361.96 766.5,-387.04 803.12,-416.88 767.16,-455.7 802.5,-487.04 825.35,-507.3 857.04,-517.11 886.28,-521.66"/>
<polygon fill="#757575" stroke="#757575" points="885.46,-525.08 895.84,-522.95 886.4,-518.14 885.46,-525.08"/>
</g>
<!-- profile.tsx&#45;&gt;../components/CustomToast.tsx -->
<g id="edge68" class="edge">
<title>profile.tsx&#45;&gt;../components/CustomToast.tsx</title>
<path fill="none" stroke="#757575" d="M656.12,-367.72C701.91,-369.85 782.99,-373.63 850.4,-376.77"/>
<polygon fill="#757575" stroke="#757575" points="849.86,-380.25 860.01,-377.21 850.18,-373.25 849.86,-380.25"/>
</g>
<!-- profile.tsx&#45;&gt;../controllers/orchestrators/profileOrchestrator.ts -->
<g id="edge70" class="edge">
<title>profile.tsx&#45;&gt;../controllers/orchestrators/profileOrchestrator.ts</title>
<path fill="none" stroke="#757575" d="M656.08,-363.06C687.69,-362.23 733.59,-365.53 766.5,-387.04 791.9,-403.64 777,-428.6 802.5,-445.04 804.41,-446.27 806.36,-447.45 808.35,-448.57"/>
<polygon fill="#757575" stroke="#757575" points="806.7,-451.65 817.2,-453.05 809.86,-445.41 806.7,-451.65"/>
</g>
<!-- report.tsx -->
<g id="node49" class="node">
<title>report.tsx</title>
<path fill="none" stroke="#c6c5fe" d="M647.21,-1067.91C647.21,-1067.91 590.79,-1067.91 590.79,-1067.91 586.83,-1067.91 582.88,-1063.96 582.88,-1060 582.88,-1060 582.88,-1052.08 582.88,-1052.08 582.88,-1048.12 586.83,-1044.16 590.79,-1044.16 590.79,-1044.16 647.21,-1044.16 647.21,-1044.16 651.17,-1044.16 655.12,-1048.12 655.12,-1052.08 655.12,-1052.08 655.12,-1060 655.12,-1060 655.12,-1063.96 651.17,-1067.91 647.21,-1067.91"/>
<text xml:space="preserve" text-anchor="middle" x="619" y="-1050.61" font-family="Arial" font-size="14.00" fill="#c6c5fe">report.tsx</text>
</g>
<!-- report.tsx&#45;&gt;../store/businessAuthStore.js -->
<g id="edge72" class="edge">
<title>report.tsx&#45;&gt;../store/businessAuthStore.js</title>
<path fill="none" stroke="#757575" d="M655.38,-1054.33C685.53,-1052.08 729.7,-1046.91 766.5,-1035.04 800.07,-1024.21 886.11,-976.39 932.64,-949.88"/>
<polygon fill="#757575" stroke="#757575" points="934.22,-953.01 941.17,-945.01 930.75,-946.93 934.22,-953.01"/>
</g>
<!-- signUp.tsx -->
<g id="node50" class="node">
<title>signUp.tsx</title>
<path fill="none" stroke="#c6c5fe" d="M650.58,-419.91C650.58,-419.91 587.42,-419.91 587.42,-419.91 583.46,-419.91 579.5,-415.96 579.5,-412 579.5,-412 579.5,-404.08 579.5,-404.08 579.5,-400.12 583.46,-396.16 587.42,-396.16 587.42,-396.16 650.58,-396.16 650.58,-396.16 654.54,-396.16 658.5,-400.12 658.5,-404.08 658.5,-404.08 658.5,-412 658.5,-412 658.5,-415.96 654.54,-419.91 650.58,-419.91"/>
<text xml:space="preserve" text-anchor="middle" x="619" y="-402.61" font-family="Arial" font-size="14.00" fill="#c6c5fe">signUp.tsx</text>
</g>
<!-- signUp.tsx&#45;&gt;../controllers/orchestrators/genreOrchestrator.ts -->
<g id="edge73" class="edge">
<title>signUp.tsx&#45;&gt;../controllers/orchestrators/genreOrchestrator.ts</title>
<path fill="none" stroke="#757575" d="M658.75,-409.84C694.31,-411.5 749.46,-414.07 803.13,-416.57"/>
<polygon fill="#757575" stroke="#757575" points="802.89,-420.06 813.04,-417.03 803.22,-413.07 802.89,-420.06"/>
</g>
<!-- signUp.tsx&#45;&gt;../store/authStore.ts -->
<g id="edge74" class="edge">
<title>signUp.tsx&#45;&gt;../store/authStore.ts</title>
<path fill="none" stroke="#757575" d="M658.77,-406.91C690.17,-407.77 734.31,-413.18 766.5,-434.04 790.4,-449.52 779,-470.96 802.5,-487.04 827.07,-503.85 858.19,-513.11 886.51,-518.18"/>
<polygon fill="#757575" stroke="#757575" points="885.69,-521.59 896.12,-519.74 886.81,-514.68 885.69,-521.59"/>
</g>
<!-- tiktokLink.tsx -->
<g id="node51" class="node">
<title>tiktokLink.tsx</title>
<path fill="none" stroke="#c6c5fe" d="M657.71,-701.91C657.71,-701.91 580.29,-701.91 580.29,-701.91 576.33,-701.91 572.38,-697.96 572.38,-694 572.38,-694 572.38,-686.08 572.38,-686.08 572.38,-682.12 576.33,-678.16 580.29,-678.16 580.29,-678.16 657.71,-678.16 657.71,-678.16 661.67,-678.16 665.62,-682.12 665.62,-686.08 665.62,-686.08 665.62,-694 665.62,-694 665.62,-697.96 661.67,-701.91 657.71,-701.91"/>
<text xml:space="preserve" text-anchor="middle" x="619" y="-684.61" font-family="Arial" font-size="14.00" fill="#c6c5fe">tiktokLink.tsx</text>
</g>
<!-- tiktokLink.tsx&#45;&gt;../controllers/services/mediaServices.ts -->
<g id="edge75" class="edge">
<title>tiktokLink.tsx&#45;&gt;../controllers/services/mediaServices.ts</title>
<path fill="none" stroke="#757575" d="M665.99,-691.38C707.39,-692.58 770.38,-694.41 827.76,-696.08"/>
<polygon fill="#757575" stroke="#757575" points="827.55,-699.58 837.65,-696.37 827.75,-692.58 827.55,-699.58"/>
</g>
<!-- tiktokLink.tsx&#45;&gt;../store/authStore.ts -->
<g id="edge76" class="edge">
<title>tiktokLink.tsx&#45;&gt;../store/authStore.ts</title>
<path fill="none" stroke="#757575" d="M665.91,-695.53C697.78,-696.73 739.25,-692.71 766.5,-669.04 809.82,-631.4 758.94,-582.4 802.5,-545.04 825.18,-525.58 856.69,-518.63 885.82,-517.17"/>
<polygon fill="#757575" stroke="#757575" points="885.86,-520.67 895.76,-516.9 885.67,-513.67 885.86,-520.67"/>
</g>
</g>
</svg>
